<?xml version="1.0" encoding="UTF-8" standalone="no"?>
<!-- Created with Inkscape (http://www.inkscape.org/) -->

<svg
   width="210mm"
   height="250mm"
   viewBox="0 0 210 250"
   version="1.1"
   id="svg5"
   xml:space="preserve"
   inkscape:version="1.2.2 (b0a8486541, 2022-12-01)"
   sodipodi:docname="logo-small.svg"
   xmlns:inkscape="http://www.inkscape.org/namespaces/inkscape"
   xmlns:sodipodi="http://sodipodi.sourceforge.net/DTD/sodipodi-0.dtd"
   xmlns="http://www.w3.org/2000/svg"
   xmlns:svg="http://www.w3.org/2000/svg"><sodipodi:namedview
     id="namedview7"
     pagecolor="#505050"
     bordercolor="#eeeeee"
     borderopacity="1"
     inkscape:showpageshadow="0"
     inkscape:pageopacity="0"
     inkscape:pagecheckerboard="0"
     inkscape:deskcolor="#505050"
     inkscape:document-units="mm"
     showgrid="false"
     inkscape:zoom="0.98898724"
     inkscape:cx="278.5678"
     inkscape:cy="307.89073"
     inkscape:window-width="2560"
     inkscape:window-height="1043"
     inkscape:window-x="0"
     inkscape:window-y="0"
     inkscape:window-maximized="1"
     inkscape:current-layer="g5778" /><defs
     id="defs2" /><g
     inkscape:label="Layer 1"
     inkscape:groupmode="layer"
     id="layer1"><g
       id="g5778"
       transform="translate(-3.1944118,-9.7111194)"
       style="fill:#1d293d;fill-opacity:1"><path
         id="path302"
         style="fill:#7ccf00;fill-opacity:1;stroke-width:0.430009"
         d="m 106.43462,23.68236 c -4.34246,0.0054 -13.261746,0.993281 -17.211351,1.906343 -18.58693,4.296906 -36.708842,15.031069 -50.580375,29.960962 -7.647209,8.230681 -12.305278,15.150374 -17.134871,25.45426 -3.385344,7.222583 -4.426302,10.84882 -4.960421,17.280599 -0.960283,11.563396 6.944832,22.214556 17.715198,23.869346 1.840646,0.28284 11.279744,0.40583 25.398966,0.33073 l 22.469946,-0.11989 -0.109554,49.65898 -0.109037,49.65899 -1.505334,0.25011 c -1.362262,0.22645 -2.279331,0.58761 -3.214274,1.33945 -4.918086,0.0171 -0.371438,-0.003 -8.444963,0.0258 l -32.299837,-0.0114 -1.670699,1.88258 c -1.849447,2.08384 -2.109058,3.52418 -0.940511,5.22397 1.274962,1.85459 2.366717,2.34479 5.719547,2.56832 1.106984,0.0737 15.061261,0.11143 32.764925,0.12764 -0.155045,4.80267 2.497902,9.33569 7.44089,11.08821 3.839533,1.3613 8.693163,-0.0631 11.563118,-3.39359 2.302052,-2.6715 2.927051,-4.06301 3.156397,-7.02696 0.01695,-0.21906 0.01171,-0.44353 0.01499,-0.66611 4.626719,-0.003 7.909004,0.007 12.786304,0.001 l 8.41912,-0.0114 c -2.5e-4,1.04484 0.12551,2.07513 0.39274,3.03702 0.23224,0.83593 0.99517,2.4229 1.69499,3.5264 3.6397,5.73925 11.41969,6.58813 16.71836,1.82418 2.57283,-2.31321 3.68821,-4.84943 3.71295,-8.41705 l 33.56281,-0.0445 2.04277,-2.14043 c 2.35202,-2.46474 2.56358,-3.6692 0.97617,-5.55574 -2.02368,-2.40502 -1.11272,-2.3476 -34.39325,-2.17764 -4.38251,0.0113 -4.38094,0.009 -7.70289,0.0165 -0.64627,-0.36009 -1.33268,-0.66126 -2.06293,-0.88005 -0.91067,-0.27284 -1.81909,-0.70692 -2.01899,-0.96428 -0.19985,-0.25735 -0.24641,-22.58184 -0.10284,-49.61041 l 0.26148,-49.14325 23.87193,0.0212 c 20.73156,0.0184 24.1822,-0.0701 26.23044,-0.6718 12.5501,-3.68669 17.9186,-15.1142 14.12472,-30.066378 C 190.54551,82.116428 185.69273,72.978544 177.16312,61.993199 165.75102,47.295485 149.04338,34.722951 133.58645,29.200886 123.95144,25.758725 113.69059,23.67336 106.43462,23.68236 Z m 13.62501,10.763684 c 15.16724,3.75492 28.54004,11.114423 40.29573,22.173323 8.92709,8.397973 19.79576,24.899673 23.45748,35.615397 0.78321,2.291886 1.24276,4.705131 1.40095,7.356657 0.21726,3.641489 0.14584,4.141419 -0.92397,6.479709 -1.55604,3.40105 -4.78014,6.4223 -7.71943,7.23367 -1.75164,0.48353 -6.31395,0.61193 -22.17797,0.62373 l -19.97294,0.0145 c -7.18747,0.18167 -7.23485,0.60603 -14.45959,1.11208 l 0.11214,54.11659 0.11162,54.00394 c -15.86231,0.0279 -22.295991,0.038 -29.706711,0.0563 l 0.257866,-53.13578 c 0.216396,-44.52032 0.162218,-53.93569 -0.315743,-54.82611 -0.968619,-2.90069 -4.409678,-1.28238 -13.28291,-1.28261 l -21.511349,-0.11162 -21.510831,-0.1111 -2.466,-1.86191 c -3.026902,-2.28567 -3.810483,-3.53398 -5.013131,-7.98607 -1.079978,-3.99801 -0.986508,-6.663692 0.426848,-12.199257 2.46492,-9.654155 11.538534,-24.106321 20.74292,-33.038293 7.847153,-7.61491 19.155309,-15.835706 25.666133,-18.65881 4.083719,-1.770709 9.087128,-3.501873 13.713375,-4.796089 -1.206722,2.502341 -1.833436,5.244657 -1.83348,8.022766 2.44e-4,10.200904 8.269799,18.47023 18.470703,18.47019 10.20091,4.4e-5 18.47047,-8.269284 18.47071,-18.47019 -2.5e-4,-3.073723 -0.76758,-6.09879 -2.23242,-8.801013 z m 17.95188,35.475354 c -10.20091,2.44e-4 -18.47023,8.269802 -18.47019,18.470707 -4e-5,10.200904 8.26929,18.470465 18.47019,18.470705 10.2011,4e-5 18.47074,-8.269601 18.4707,-18.470705 4e-5,-10.201104 -8.2696,-18.470745 -18.4707,-18.470707 z M 73.743594,71.14923 c -10.201107,-4.2e-5 -18.470749,8.2696 -18.470707,18.470707 -4e-5,10.201106 8.269601,18.470743 18.470707,18.470703 10.201106,4e-5 18.470747,-8.269597 18.470707,-18.470703 4.2e-5,-10.201107 -8.2696,-18.470749 -18.470707,-18.470707 z"
         sodipodi:nodetypes="sssssccccccccccsccssscccssscccsccssccsssssscsssssccccccccccccssssccccccccccccccc" /><path
         style="fill:#000000;fill-opacity:0;stroke:none;stroke-width:0.314377;stop-color:#000000"
         d="m 90.826605,170.90949 c 0.10405,-28.74572 0.08694,-53.07472 -0.03801,-54.06445 -0.124959,-0.98973 -0.481971,-2.11414 -0.793357,-2.49869 l -0.566158,-0.69917 -27.540759,0.0899 -27.540758,0.09 -1.501379,-1.18907 c -4.014862,-3.17973 -4.94344,-4.54675 -6.088108,-8.96269 -1.62664,-6.275328 0.35404,-14.68331 5.722455,-24.291826 6.876003,-12.30683 15.167368,-21.560543 27.629642,-30.836518 8.661759,-6.447157 13.871129,-9.099696 24.133381,-12.288379 8.98902,-2.793066 17.150616,-3.858358 25.169566,-3.285253 6.33563,0.452801 10.89032,1.412038 17.73063,3.734148 13.97194,4.743115 27.64818,13.594413 36.73899,23.777574 8.7352,9.784816 18.14761,25.28409 20.23632,33.322818 0.69494,2.674565 1.21033,7.287346 1.00699,9.012666 -0.48115,4.08267 -4.64752,9.02729 -8.74902,10.3833 -0.69987,0.23138 -8.83152,0.42049 -24.46919,0.56905 -21.07663,0.20022 -27.84302,0.44651 -31.40175,1.14298 l -0.75013,0.1468 0.14627,54.05587 0.14628,54.05588 H 105.34296 90.637423 Z"
         id="path3545" /><path
         style="fill:#9ad93c;fill-opacity:1;stroke:#7ccf00;stroke-width:1;stroke-dasharray:none;stroke-opacity:1;stop-color:#000000"
         d="m 90.658199,169.16967 c 0,-50.2687 -0.05234,-54.05418 -0.757112,-54.75949 -0.6993,-0.69982 -2.845968,-0.74945 -28.110939,-0.64992 l -27.35381,0.10775 -2.63406,-2.02686 c -2.90732,-2.23713 -4.02915,-4.11376 -5.19995,-8.69859 -2.12201,-8.309825 3.42275,-22.32782 14.42491,-36.468362 7.14395,-9.181768 20.73234,-20.400513 30.97606,-25.574206 3.630339,-1.833543 14.878164,-6.106373 15.265677,-5.718865 0.116602,0.116606 -1.204789,1.939666 -1.568356,3.284236 -2.252058,8.328677 2.352352,17.938707 10.390142,21.685636 2.318805,1.080944 3.070112,1.198705 7.682969,1.204236 4.86153,0.0058 5.25648,-0.06417 8.03545,-1.424095 8.40005,-4.110698 12.57481,-14.095577 9.55645,-22.856428 -0.36187,-1.050327 -1.26555,-2.64974 -1.13934,-2.775949 0.40874,-0.408738 12.20156,4.1838 16.7215,6.351842 18.38675,8.819448 33.30648,24.052593 43.27831,44.187468 3.56374,7.195824 4.57022,10.5913 4.63823,15.647587 0.0393,2.92041 -0.13793,3.9147 -0.99048,5.55743 -1.32495,2.55295 -3.80359,5.1474 -6.07519,6.35903 -1.7315,0.92355 -2.44038,0.95747 -26.89794,1.28699 -13.81577,0.18613 -26.42002,0.49259 -28.00944,0.681 l -2.88986,0.34256 -0.11292,54.12935 -0.11292,54.12934 -14.55869,7e-5 -14.558691,5e-5 z m -12.668832,-61.4013 c 5.591062,-1.27166 10.150996,-5.08253 12.767914,-10.670534 1.10845,-2.366906 1.23326,-3.113848 1.220593,-7.30474 -0.01791,-5.930876 -1.008112,-8.67354 -4.488716,-12.433008 -4.327856,-4.674603 -8.860871,-6.516227 -15.08361,-6.128005 -8.75992,0.546515 -15.57654,6.778016 -17.12192,15.652225 -1.87415,10.762181 6.89895,21.159112 18.16993,21.533032 0.80757,0.0268 2.848689,-0.26524 4.535809,-0.64897 z m 64.704093,-1.3261 c 3.50161,-0.91182 6.18953,-2.50472 8.74611,-5.18306 6.91343,-7.242725 6.76871,-18.810828 -0.32405,-25.903594 -9.09002,-9.090011 -24.16706,-6.566622 -29.88441,5.001646 -1.61773,3.273275 -1.67429,3.546931 -1.67429,8.102053 0,4.555121 0.0566,4.828777 1.67429,8.102052 4.02342,8.140833 12.73776,12.152773 21.46235,9.880903 z"
         id="path4237"
         sodipodi:nodetypes="ssscssssssscsssssssssscccccsssssssssssssscs" /></g></g></svg>
